<svg id="visual" viewBox="0 0 1920 1080" width="1920" height="1080" xmlns="http://www.w3.org/2000/svg" xmlns:xlink="http://www.w3.org/1999/xlink" version="1.1"><g stroke-width="1" stroke-linejoin="bevel"><path d="M932 544L916.9 474L775.7 524Z" fill="#00101c" stroke="#00101c"></path><path d="M916.9 474L815.9 448L775.7 524Z" fill="#0c2435" stroke="#0c2435"></path><path d="M775.7 524L751.7 577L932 544Z" fill="#1d4e6b" stroke="#1d4e6b"></path><path d="M783.9 342L778.7 402L815.9 448Z" fill="#00101c" stroke="#00101c"></path><path d="M815.9 448L778.7 402L775.7 524Z" fill="#0c2435" stroke="#0c2435"></path><path d="M775.7 524L595.6 577L751.7 577Z" fill="#277297" stroke="#277297"></path><path d="M1115.1 541L935 385L916.9 474Z" fill="#1d4e6b" stroke="#1d4e6b"></path><path d="M916.9 474L935 385L815.9 448Z" fill="#205a7a" stroke="#205a7a"></path><path d="M861 730L975 655L932 544Z" fill="#15384f" stroke="#15384f"></path><path d="M932 544L1115.1 541L916.9 474Z" fill="#205a7a" stroke="#205a7a"></path><path d="M935 385L783.9 342L815.9 448Z" fill="#0c2435" stroke="#0c2435"></path><path d="M778.7 402L595.6 577L775.7 524Z" fill="#246688" stroke="#246688"></path><path d="M751.7 577L830.9 728L932 544Z" fill="#297ea6" stroke="#297ea6"></path><path d="M830.9 728L861 730L932 544Z" fill="#297ea6" stroke="#297ea6"></path><path d="M751.7 577L756.9 751L830.9 728Z" fill="#19435d" stroke="#19435d"></path><path d="M830.9 728L803.9 880L861 730Z" fill="#297ea6" stroke="#297ea6"></path><path d="M975 655L1115.1 541L932 544Z" fill="#246688" stroke="#246688"></path><path d="M619.6 292L595.6 577L778.7 402Z" fill="#205a7a" stroke="#205a7a"></path><path d="M751.7 577L644.6 730L756.9 751Z" fill="#0c2435" stroke="#0c2435"></path><path d="M1114.1 260L907 259L935 385Z" fill="#205a7a" stroke="#205a7a"></path><path d="M935 385L907 259L783.9 342Z" fill="#205a7a" stroke="#205a7a"></path><path d="M595.6 577L618.6 664L751.7 577Z" fill="#15384f" stroke="#15384f"></path><path d="M618.6 664L644.6 730L751.7 577Z" fill="#246688" stroke="#246688"></path><path d="M1115.1 541L1144.1 400L935 385Z" fill="#00101c" stroke="#00101c"></path><path d="M632.7 208L619.6 292L783.9 342Z" fill="#297ea6" stroke="#297ea6"></path><path d="M783.9 342L619.6 292L778.7 402Z" fill="#277297" stroke="#277297"></path><path d="M1031 846L1137.1 698L975 655Z" fill="#205a7a" stroke="#205a7a"></path><path d="M975 655L1137.1 698L1115.1 541Z" fill="#277297" stroke="#277297"></path><path d="M1115.1 541L1291.3 575L1144.1 400Z" fill="#0c2435" stroke="#0c2435"></path><path d="M1031 846L975 655L861 730Z" fill="#205a7a" stroke="#205a7a"></path><path d="M1137.1 698L1184.3 636L1115.1 541Z" fill="#15384f" stroke="#15384f"></path><path d="M532.6 311L505.4 563L595.6 577Z" fill="#246688" stroke="#246688"></path><path d="M595.6 577L505.4 563L618.6 664Z" fill="#00101c" stroke="#00101c"></path><path d="M618.6 664L484.4 749L644.6 730Z" fill="#277297" stroke="#277297"></path><path d="M686.7 874L803.9 880L756.9 751Z" fill="#277297" stroke="#277297"></path><path d="M756.9 751L803.9 880L830.9 728Z" fill="#246688" stroke="#246688"></path><path d="M803.9 880L1031 846L861 730Z" fill="#0c2435" stroke="#0c2435"></path><path d="M1413.4 774L1291.3 575L1184.3 636Z" fill="#246688" stroke="#246688"></path><path d="M1144.1 400L1114.1 260L935 385Z" fill="#112e42" stroke="#112e42"></path><path d="M1074.1 143L881.9 152L907 259Z" fill="#0c2435" stroke="#0c2435"></path><path d="M907 259L881.9 152L783.9 342Z" fill="#081a28" stroke="#081a28"></path><path d="M652.7 151L632.7 208L783.9 342Z" fill="#112e42" stroke="#112e42"></path><path d="M619.6 292L532.6 311L595.6 577Z" fill="#277297" stroke="#277297"></path><path d="M632.7 208L532.6 311L619.6 292Z" fill="#1d4e6b" stroke="#1d4e6b"></path><path d="M657.7 863L686.7 874L756.9 751Z" fill="#00101c" stroke="#00101c"></path><path d="M657.7 863L756.9 751L644.6 730Z" fill="#277297" stroke="#277297"></path><path d="M484.4 749L657.7 863L644.6 730Z" fill="#1d4e6b" stroke="#1d4e6b"></path><path d="M1144.1 400L1206.3 342L1114.1 260Z" fill="#246688" stroke="#246688"></path><path d="M1291.3 575L1206.3 342L1144.1 400Z" fill="#15384f" stroke="#15384f"></path><path d="M975 1080L1024.1 904L803.9 880Z" fill="#00101c" stroke="#00101c"></path><path d="M803.9 880L1024.1 904L1031 846Z" fill="#081a28" stroke="#081a28"></path><path d="M1031 846L1134.3 873L1137.1 698Z" fill="#297ea6" stroke="#297ea6"></path><path d="M505.4 563L478.4 717L618.6 664Z" fill="#205a7a" stroke="#205a7a"></path><path d="M288.3 630L478.4 717L505.4 563Z" fill="#0c2435" stroke="#0c2435"></path><path d="M632.7 208L593.6 167L532.6 311Z" fill="#112e42" stroke="#112e42"></path><path d="M881.9 152L652.7 151L783.9 342Z" fill="#112e42" stroke="#112e42"></path><path d="M478.4 717L484.4 749L618.6 664Z" fill="#19435d" stroke="#19435d"></path><path d="M1181.1 847L1184.3 636L1137.1 698Z" fill="#19435d" stroke="#19435d"></path><path d="M1184.3 636L1291.3 575L1115.1 541Z" fill="#0c2435" stroke="#0c2435"></path><path d="M1137.3 108L1074.1 143L1114.1 260Z" fill="#0c2435" stroke="#0c2435"></path><path d="M1114.1 260L1074.1 143L907 259Z" fill="#19435d" stroke="#19435d"></path><path d="M881.9 152L782.7 0L652.7 151Z" fill="#19435d" stroke="#19435d"></path><path d="M652.7 151L593.6 167L632.7 208Z" fill="#15384f" stroke="#15384f"></path><path d="M1024.1 904L1134.3 873L1031 846Z" fill="#00101c" stroke="#00101c"></path><path d="M1134.3 873L1181.1 847L1137.1 698Z" fill="#277297" stroke="#277297"></path><path d="M1291.3 575L1279.3 332L1206.3 342Z" fill="#205a7a" stroke="#205a7a"></path><path d="M1206.3 342L1279.3 332L1114.1 260Z" fill="#297ea6" stroke="#297ea6"></path><path d="M1074.1 143L936 49L881.9 152Z" fill="#205a7a" stroke="#205a7a"></path><path d="M652.7 151L480.6 0L593.6 167Z" fill="#1d4e6b" stroke="#1d4e6b"></path><path d="M363.3 362L379.4 391L532.6 311Z" fill="#1d4e6b" stroke="#1d4e6b"></path><path d="M532.6 311L379.4 391L505.4 563Z" fill="#15384f" stroke="#15384f"></path><path d="M478.4 717L412.4 852L484.4 749Z" fill="#1d4e6b" stroke="#1d4e6b"></path><path d="M1446.6 720L1349.4 567L1291.3 575Z" fill="#0c2435" stroke="#0c2435"></path><path d="M1291.3 575L1383.4 502L1279.3 332Z" fill="#00101c" stroke="#00101c"></path><path d="M1279.3 332L1137.3 108L1114.1 260Z" fill="#1d4e6b" stroke="#1d4e6b"></path><path d="M1074.1 143L1004.1 0L936 49Z" fill="#0c2435" stroke="#0c2435"></path><path d="M366.4 259L363.3 362L532.6 311Z" fill="#205a7a" stroke="#205a7a"></path><path d="M244.3 721L412.4 852L478.4 717Z" fill="#00101c" stroke="#00101c"></path><path d="M1004.1 0L833.9 0L936 49Z" fill="#112e42" stroke="#112e42"></path><path d="M936 49L833.9 0L881.9 152Z" fill="#277297" stroke="#277297"></path><path d="M1349.4 567L1383.4 502L1291.3 575Z" fill="#112e42" stroke="#112e42"></path><path d="M833.9 0L782.7 0L881.9 152Z" fill="#297ea6" stroke="#297ea6"></path><path d="M593.6 167L366.4 259L532.6 311Z" fill="#0c2435" stroke="#0c2435"></path><path d="M1411.6 485L1353.4 304L1279.3 332Z" fill="#19435d" stroke="#19435d"></path><path d="M1279.3 332L1353.4 304L1137.3 108Z" fill="#205a7a" stroke="#205a7a"></path><path d="M1052 0L1004.1 0L1074.1 143Z" fill="#297ea6" stroke="#297ea6"></path><path d="M288.3 630L505.4 563L270.3 445Z" fill="#277297" stroke="#277297"></path><path d="M484.4 749L412.4 852L657.7 863Z" fill="#112e42" stroke="#112e42"></path><path d="M726.9 1080L740.7 1080L686.7 874Z" fill="#15384f" stroke="#15384f"></path><path d="M686.7 874L740.7 1080L803.9 880Z" fill="#205a7a" stroke="#205a7a"></path><path d="M329.4 88L366.4 259L593.6 167Z" fill="#297ea6" stroke="#297ea6"></path><path d="M1349.4 567L1411.6 485L1383.4 502Z" fill="#081a28" stroke="#081a28"></path><path d="M1383.4 502L1411.6 485L1279.3 332Z" fill="#246688" stroke="#246688"></path><path d="M1592.6 633L1411.6 485L1349.4 567Z" fill="#205a7a" stroke="#205a7a"></path><path d="M1137.3 108L1052 0L1074.1 143Z" fill="#19435d" stroke="#19435d"></path><path d="M1237.3 0L1052 0L1137.3 108Z" fill="#297ea6" stroke="#297ea6"></path><path d="M726.9 1080L686.7 874L589.6 1080Z" fill="#277297" stroke="#277297"></path><path d="M1024.1 904L1129.1 1080L1134.3 873Z" fill="#205a7a" stroke="#205a7a"></path><path d="M740.7 1080L975 1080L803.9 880Z" fill="#1d4e6b" stroke="#1d4e6b"></path><path d="M1283.3 972L1381.4 828L1181.1 847Z" fill="#19435d" stroke="#19435d"></path><path d="M589.6 1080L686.7 874L657.7 863Z" fill="#246688" stroke="#246688"></path><path d="M270.3 445L379.4 391L363.3 362Z" fill="#081a28" stroke="#081a28"></path><path d="M270.3 445L505.4 563L379.4 391Z" fill="#00101c" stroke="#00101c"></path><path d="M412.4 852L497.6 991L657.7 863Z" fill="#246688" stroke="#246688"></path><path d="M228.3 375L270.3 445L363.3 362Z" fill="#1d4e6b" stroke="#1d4e6b"></path><path d="M1283.3 972L1181.1 847L1134.3 873Z" fill="#081a28" stroke="#081a28"></path><path d="M1181.1 847L1381.4 828L1184.3 636Z" fill="#297ea6" stroke="#297ea6"></path><path d="M1381.4 828L1413.4 774L1184.3 636Z" fill="#277297" stroke="#277297"></path><path d="M497.6 991L589.6 1080L657.7 863Z" fill="#277297" stroke="#277297"></path><path d="M1129.1 1080L1283.3 972L1134.3 873Z" fill="#19435d" stroke="#19435d"></path><path d="M975 1080L1129.1 1080L1024.1 904Z" fill="#297ea6" stroke="#297ea6"></path><path d="M1445.4 860L1446.6 720L1413.4 774Z" fill="#246688" stroke="#246688"></path><path d="M1413.4 774L1446.6 720L1291.3 575Z" fill="#246688" stroke="#246688"></path><path d="M205.1 710L244.3 721L288.3 630Z" fill="#0c2435" stroke="#0c2435"></path><path d="M288.3 630L244.3 721L478.4 717Z" fill="#112e42" stroke="#112e42"></path><path d="M412.4 852L373.3 950L497.6 991Z" fill="#112e42" stroke="#112e42"></path><path d="M244.3 721L373.3 950L412.4 852Z" fill="#00101c" stroke="#00101c"></path><path d="M497.6 991L337.4 1080L589.6 1080Z" fill="#00101c" stroke="#00101c"></path><path d="M782.7 0L480.6 0L652.7 151Z" fill="#081a28" stroke="#081a28"></path><path d="M366.4 259L228.3 375L363.3 362Z" fill="#00101c" stroke="#00101c"></path><path d="M168.1 250L228.3 375L366.4 259Z" fill="#081a28" stroke="#081a28"></path><path d="M178.1 590L205.1 710L288.3 630Z" fill="#277297" stroke="#277297"></path><path d="M1300.4 0L1237.3 0L1391.4 88Z" fill="#081a28" stroke="#081a28"></path><path d="M1353.4 304L1391.4 88L1137.3 108Z" fill="#297ea6" stroke="#297ea6"></path><path d="M1576.6 213L1435.6 191L1353.4 304Z" fill="#205a7a" stroke="#205a7a"></path><path d="M1586.6 486L1353.4 304L1411.6 485Z" fill="#0c2435" stroke="#0c2435"></path><path d="M178.1 590L288.3 630L270.3 445Z" fill="#081a28" stroke="#081a28"></path><path d="M244.3 721L152.1 966L373.3 950Z" fill="#00101c" stroke="#00101c"></path><path d="M1283.3 972L1445.4 860L1381.4 828Z" fill="#297ea6" stroke="#297ea6"></path><path d="M1381.4 828L1445.4 860L1413.4 774Z" fill="#246688" stroke="#246688"></path><path d="M1366.4 1080L1445.4 860L1283.3 972Z" fill="#1d4e6b" stroke="#1d4e6b"></path><path d="M118.1 486L178.1 590L270.3 445Z" fill="#15384f" stroke="#15384f"></path><path d="M480.6 0L329.4 88L593.6 167Z" fill="#081a28" stroke="#081a28"></path><path d="M1391.4 88L1237.3 0L1137.3 108Z" fill="#15384f" stroke="#15384f"></path><path d="M1435.6 191L1391.4 88L1353.4 304Z" fill="#0c2435" stroke="#0c2435"></path><path d="M118.1 486L150.1 630L178.1 590Z" fill="#277297" stroke="#277297"></path><path d="M178.1 590L150.1 630L205.1 710Z" fill="#112e42" stroke="#112e42"></path><path d="M1129.1 1080L1316.3 1080L1283.3 972Z" fill="#15384f" stroke="#15384f"></path><path d="M1592.6 633L1349.4 567L1446.6 720Z" fill="#277297" stroke="#277297"></path><path d="M1592.6 633L1586.6 486L1411.6 485Z" fill="#19435d" stroke="#19435d"></path><path d="M1586.7 0L1413.6 0L1391.4 88Z" fill="#246688" stroke="#246688"></path><path d="M0 356L118.1 486L228.3 375Z" fill="#1d4e6b" stroke="#1d4e6b"></path><path d="M228.3 375L118.1 486L270.3 445Z" fill="#19435d" stroke="#19435d"></path><path d="M329.4 88L168.1 250L366.4 259Z" fill="#1d4e6b" stroke="#1d4e6b"></path><path d="M1599.7 672L1446.6 720L1445.4 860Z" fill="#00101c" stroke="#00101c"></path><path d="M1599.7 672L1592.6 633L1446.6 720Z" fill="#277297" stroke="#277297"></path><path d="M314.4 0L267.3 64L329.4 88Z" fill="#205a7a" stroke="#205a7a"></path><path d="M329.4 88L267.3 64L168.1 250Z" fill="#277297" stroke="#277297"></path><path d="M480.6 0L321.3 0L329.4 88Z" fill="#15384f" stroke="#15384f"></path><path d="M321.3 0L314.4 0L329.4 88Z" fill="#19435d" stroke="#19435d"></path><path d="M1316.3 1080L1366.4 1080L1283.3 972Z" fill="#00101c" stroke="#00101c"></path><path d="M1722.9 592L1599.7 672L1773.9 812Z" fill="#246688" stroke="#246688"></path><path d="M1592.6 633L1674.7 579L1586.6 486Z" fill="#112e42" stroke="#112e42"></path><path d="M202.3 1080L337.4 1080L373.3 950Z" fill="#1d4e6b" stroke="#1d4e6b"></path><path d="M373.3 950L337.4 1080L497.6 991Z" fill="#1d4e6b" stroke="#1d4e6b"></path><path d="M152.1 966L244.3 721L205.1 710Z" fill="#0c2435" stroke="#0c2435"></path><path d="M1586.7 0L1391.4 88L1435.6 191Z" fill="#277297" stroke="#277297"></path><path d="M1391.4 88L1413.6 0L1300.4 0Z" fill="#297ea6" stroke="#297ea6"></path><path d="M1696.9 292L1576.6 213L1586.6 486Z" fill="#081a28" stroke="#081a28"></path><path d="M1586.6 486L1576.6 213L1353.4 304Z" fill="#1d4e6b" stroke="#1d4e6b"></path><path d="M1722.9 592L1674.7 579L1599.7 672Z" fill="#15384f" stroke="#15384f"></path><path d="M1599.7 672L1674.7 579L1592.6 633Z" fill="#277297" stroke="#277297"></path><path d="M0 883L152.1 966L205.1 710Z" fill="#0c2435" stroke="#0c2435"></path><path d="M0 761L205.1 710L150.1 630Z" fill="#0c2435" stroke="#0c2435"></path><path d="M152.1 966L202.3 1080L373.3 950Z" fill="#205a7a" stroke="#205a7a"></path><path d="M0 356L0 459L118.1 486Z" fill="#15384f" stroke="#15384f"></path><path d="M118.1 486L0 597L150.1 630Z" fill="#15384f" stroke="#15384f"></path><path d="M0 356L228.3 375L168.1 250Z" fill="#246688" stroke="#246688"></path><path d="M0 459L0 597L118.1 486Z" fill="#081a28" stroke="#081a28"></path><path d="M0 597L0 618L150.1 630Z" fill="#277297" stroke="#277297"></path><path d="M1674.7 579L1719.7 467L1586.6 486Z" fill="#00101c" stroke="#00101c"></path><path d="M1739.7 893L1599.7 672L1445.4 860Z" fill="#19435d" stroke="#19435d"></path><path d="M1674.7 579L1722.9 592L1719.7 467Z" fill="#205a7a" stroke="#205a7a"></path><path d="M0 41L0 356L168.1 250Z" fill="#081a28" stroke="#081a28"></path><path d="M114.1 63L168.1 250L267.3 64Z" fill="#081a28" stroke="#081a28"></path><path d="M314.4 0L114.1 63L267.3 64Z" fill="#081a28" stroke="#081a28"></path><path d="M1719.7 467L1696.9 292L1586.6 486Z" fill="#1d4e6b" stroke="#1d4e6b"></path><path d="M1576.6 213L1586.7 0L1435.6 191Z" fill="#1d4e6b" stroke="#1d4e6b"></path><path d="M1366.4 1080L1602.6 1000L1445.4 860Z" fill="#205a7a" stroke="#205a7a"></path><path d="M0 618L0 761L150.1 630Z" fill="#112e42" stroke="#112e42"></path><path d="M152.1 966L65.1 1080L202.3 1080Z" fill="#277297" stroke="#277297"></path><path d="M1727.7 108L1586.7 0L1576.6 213Z" fill="#081a28" stroke="#081a28"></path><path d="M1719.7 467L1730.7 314L1696.9 292Z" fill="#112e42" stroke="#112e42"></path><path d="M1764.9 193L1727.7 108L1576.6 213Z" fill="#1d4e6b" stroke="#1d4e6b"></path><path d="M1871.9 433L1730.7 314L1719.7 467Z" fill="#297ea6" stroke="#297ea6"></path><path d="M1366.4 1080L1589.6 1080L1602.6 1000Z" fill="#112e42" stroke="#112e42"></path><path d="M1920 609L1806.9 551L1920 654Z" fill="#205a7a" stroke="#205a7a"></path><path d="M0 761L0 883L205.1 710Z" fill="#15384f" stroke="#15384f"></path><path d="M1589.6 1080L1616.7 1080L1602.6 1000Z" fill="#277297" stroke="#277297"></path><path d="M1739.7 893L1445.4 860L1602.6 1000Z" fill="#0c2435" stroke="#0c2435"></path><path d="M1722.9 592L1806.9 551L1719.7 467Z" fill="#19435d" stroke="#19435d"></path><path d="M1738.7 917L1739.7 893L1602.6 1000Z" fill="#297ea6" stroke="#297ea6"></path><path d="M314.4 0L48.1 0L114.1 63Z" fill="#246688" stroke="#246688"></path><path d="M114.1 63L0 41L168.1 250Z" fill="#19435d" stroke="#19435d"></path><path d="M1739.7 893L1773.9 812L1599.7 672Z" fill="#15384f" stroke="#15384f"></path><path d="M0 883L65.1 1080L152.1 966Z" fill="#112e42" stroke="#112e42"></path><path d="M1764.9 193L1696.9 292L1730.7 314Z" fill="#15384f" stroke="#15384f"></path><path d="M1764.9 193L1576.6 213L1696.9 292Z" fill="#081a28" stroke="#081a28"></path><path d="M1778.9 1035L1738.7 917L1602.6 1000Z" fill="#297ea6" stroke="#297ea6"></path><path d="M1739.7 893L1920 873L1773.9 812Z" fill="#112e42" stroke="#112e42"></path><path d="M1920 176L1764.9 193L1730.7 314Z" fill="#112e42" stroke="#112e42"></path><path d="M48.1 0L0 41L114.1 63Z" fill="#297ea6" stroke="#297ea6"></path><path d="M48.1 0L0 0L0 41Z" fill="#277297" stroke="#277297"></path><path d="M0 883L0 1080L65.1 1080Z" fill="#277297" stroke="#277297"></path><path d="M1806.9 551L1871.9 433L1719.7 467Z" fill="#15384f" stroke="#15384f"></path><path d="M1764.9 193L1920 88L1727.7 108Z" fill="#19435d" stroke="#19435d"></path><path d="M1920 503L1871.9 433L1806.9 551Z" fill="#112e42" stroke="#112e42"></path><path d="M1616.7 1080L1737.9 1080L1602.6 1000Z" fill="#00101c" stroke="#00101c"></path><path d="M1738.7 917L1920 873L1739.7 893Z" fill="#00101c" stroke="#00101c"></path><path d="M1920 609L1920 503L1806.9 551Z" fill="#15384f" stroke="#15384f"></path><path d="M1737.9 1080L1778.9 1035L1602.6 1000Z" fill="#1d4e6b" stroke="#1d4e6b"></path><path d="M1806.9 551L1722.9 592L1920 654Z" fill="#246688" stroke="#246688"></path><path d="M1871.9 433L1920 176L1730.7 314Z" fill="#00101c" stroke="#00101c"></path><path d="M1920 654L1722.9 592L1773.9 812Z" fill="#112e42" stroke="#112e42"></path><path d="M1920 873L1920 654L1773.9 812Z" fill="#19435d" stroke="#19435d"></path><path d="M1920 503L1920 176L1871.9 433Z" fill="#0c2435" stroke="#0c2435"></path><path d="M1727.7 108L1847.9 0L1586.7 0Z" fill="#297ea6" stroke="#297ea6"></path><path d="M1778.9 1035L1920 873L1738.7 917Z" fill="#0c2435" stroke="#0c2435"></path><path d="M1920 88L1847.9 0L1727.7 108Z" fill="#00101c" stroke="#00101c"></path><path d="M1920 176L1920 88L1764.9 193Z" fill="#112e42" stroke="#112e42"></path><path d="M1778.9 1035L1920 1028L1920 873Z" fill="#081a28" stroke="#081a28"></path><path d="M1920 1080L1920 1028L1778.9 1035Z" fill="#297ea6" stroke="#297ea6"></path><path d="M1920 88L1920 0L1847.9 0Z" fill="#297ea6" stroke="#297ea6"></path><path d="M1737.9 1080L1920 1080L1778.9 1035Z" fill="#15384f" stroke="#15384f"></path></g></svg>